<?xml version="1.0" encoding="UTF-8"?>
<svg width="239px" height="68px" viewBox="0 0 239 68" version="1.1" xmlns="http://www.w3.org/2000/svg" xmlns:xlink="http://www.w3.org/1999/xlink">
    <!-- Generator: Sketch 47.1 (45422) - http://www.bohemiancoding.com/sketch -->
    <title>logo_lockup_firebase_horizontal_knockout</title>
    <desc>Created with Sketch.</desc>
    <defs></defs>
    <g id="Page-1" stroke="none" stroke-width="1" fill="none" fill-rule="evenodd">
        <g id="styleguide" transform="translate(-1007.000000, -1313.000000)" fill-rule="nonzero" fill="#FFFFFF">
            <g id="Group-16" transform="translate(40.000000, 1187.000000)">
                <g id="Group-9" transform="translate(114.000000, 0.000000)">
                    <g id="Group-27" transform="translate(812.000000, 0.000000)">
                        <g id="logo_lockup_firebase_horizontal_knockout" transform="translate(41.546961, 126.408840)">
                            <path d="M71.6237771,52.2711632 L67.1823204,52.2711632 L67.1823204,17.1918586 L87.3536217,17.1918586 L87.3536217,21.5016564 L71.6237771,21.5016564 L71.6237771,33.0186916 L85.811554,33.0186916 L85.811554,37.2289736 L71.6237771,37.2289736 L71.6237771,52.2711632 Z M95.7049174,22.2403695 C94.6461381,23.3198641 92.983527,23.4894635 91.7343496,22.6453987 C90.4851722,21.8013338 89.9975582,20.1788347 90.5698534,18.7706245 C91.1421486,17.3624143 92.6148617,16.560943 94.0869157,16.8565894 C95.5589698,17.1522358 96.6201224,18.4626071 96.6211092,19.9859549 C96.6354016,20.8343675 96.3022549,21.6507606 95.7011471,22.2403695 L95.7049174,22.2403695 Z M95.7049174,52.2711632 L91.2634608,52.2711632 L91.2634608,28.2649004 L95.7049174,28.2649004 L95.7049174,52.2711632 Z M105.451238,52.2711632 L101.009781,52.2711632 L101.009781,28.2649004 L105.25518,28.2649004 L105.25518,32.1842902 L105.447467,32.1842902 C105.960233,30.803121 106.945146,29.655192 108.222435,28.9500281 C109.442189,28.1551464 110.853,27.7143641 112.30194,27.6754609 C113.43943,27.6426572 114.571751,27.8431357 115.631147,28.2649004 L113.942036,32.4751825 C113.180642,32.2178814 112.379981,32.1012107 111.578035,32.1307048 C109.949472,32.1391069 108.399352,32.8418949 107.306243,34.0674346 C106.067059,35.3585877 105.447467,37.0490798 105.447467,39.1389107 L105.451238,52.2711632 Z M127.801794,53.036669 C124.230028,53.036669 121.326869,51.8284456 119.092316,49.4119989 C116.857763,46.9955522 115.73923,43.9475631 115.736716,40.2680318 C115.671099,36.9550996 116.833745,33.7380126 118.994287,31.2542007 C121.063542,28.781917 124.124581,27.3942504 127.319191,27.4802569 C130.825604,27.4802569 133.633248,28.6399983 135.742123,30.9594809 C137.850998,33.2789636 138.904178,36.3818139 138.901665,40.2680318 L138.85265,41.1024331 L120.170632,41.1024331 C120.298824,43.5188799 121.095621,45.4326444 122.561026,46.8437268 C123.931398,48.2092564 125.779843,48.9664587 127.699995,48.9488679 C130.884672,48.9488679 133.040048,47.5773366 134.166122,44.834274 L138.124975,46.4992492 C137.322763,48.3973227 135.999521,50.0209927 134.313165,51.1764898 C132.541107,52.4166093 130.37065,53.036669 127.801794,53.036669 Z M134.173663,37.3437995 C134.078147,35.9709924 133.458555,34.6645291 132.314887,33.4244097 C131.171218,32.1842902 129.470796,31.5769889 127.213621,31.6025058 C125.648069,31.5746705 124.12729,32.1333442 122.94183,33.1717928 C121.699896,34.2765882 120.830841,35.7492157 120.457178,37.3820748 L134.173663,37.3437995 Z M154.948218,53.036669 C153.267767,53.0705018 151.60582,52.6756912 150.114646,51.8884102 C148.805127,51.2179203 147.697014,50.2027152 146.90609,48.9488679 L146.713802,48.9488679 L146.713802,52.2711632 L142.464633,52.2711632 L142.464633,17.1918586 L146.90609,17.1918586 L146.90609,28.2649004 L146.713802,31.5948508 L146.90609,31.5948508 C147.697014,30.3410035 148.805127,29.3257983 150.114646,28.6553084 C151.603482,27.8588882 153.265518,27.4548437 154.948218,27.4802569 C158.004704,27.4802569 160.64394,28.7050663 162.865925,31.1546849 C165.08791,33.6043035 166.197646,36.6420858 166.195132,40.2680318 C166.195132,43.8939777 165.085396,46.93176 162.865925,49.3813787 C160.646453,51.8309973 158.007218,53.0494274 154.948218,53.036669 Z M154.224313,48.9220752 C156.247567,48.9383972 158.180532,48.0729286 159.532947,46.5451796 C161.013433,44.9605825 161.753675,42.8618207 161.753675,40.2488941 C161.753675,37.6359676 161.013433,35.5372058 159.532947,33.9526087 C158.165088,32.4431395 156.238331,31.5822848 154.217951,31.577924 C152.197572,31.5735632 150.267227,32.4260927 148.893057,33.9296435 C147.430166,35.4963788 146.698721,37.6027957 146.698721,40.2488941 C146.698721,42.8949926 147.437707,45.0077887 148.915679,46.5872824 C150.276557,48.109319 152.214731,48.9663009 154.239394,48.9412128 L154.224313,48.9220752 Z M177.502372,53.036669 C174.988814,53.036669 172.889993,52.3017834 171.205909,50.8320122 C169.521826,49.362241 168.67727,47.4191321 168.672243,45.0026853 C168.672243,42.3897588 169.670126,40.3407548 171.665891,38.8556735 C173.661655,37.3705922 176.122428,36.6280516 179.04821,36.6280516 C181.654769,36.6280516 183.791293,37.1179753 185.457782,38.0978228 L185.457782,37.412695 C185.521414,35.7991143 184.864834,34.2424511 183.670643,33.1756203 C182.454557,32.112447 180.889832,31.5510907 179.285741,31.6025058 C178.058161,31.5864808 176.849171,31.9078611 175.786869,32.5325954 C174.791745,33.092172 174.028726,33.9972235 173.637777,35.0817298 L169.584665,33.3172389 C170.13262,31.8755362 171.210937,30.5384527 172.819614,29.3059883 C174.428291,28.0735239 176.552247,27.4611193 179.191483,27.4687743 C182.207752,27.4687743 184.72131,28.3618645 186.732156,30.1480447 C188.743002,31.934225 189.740885,34.4654976 189.725803,37.7418625 L189.725803,52.2711632 L185.465323,52.2711632 L185.465323,48.9412128 L185.273036,48.9412128 C183.500977,51.6715169 180.910756,53.036669 177.502372,53.036669 L177.502372,53.036669 Z M178.226276,48.9220752 C180.092643,48.9154725 181.884143,48.1762069 183.225743,46.859037 C184.65555,45.6353926 185.482864,43.8352866 185.487945,41.9368345 C184.231166,40.8906432 182.345998,40.3675475 179.83244,40.3675475 C177.675807,40.3675475 176.050792,40.8408853 174.957394,41.7875608 C173.937008,42.5838271 173.332561,43.8110596 173.317298,45.1175112 C173.296594,46.2544171 173.870385,47.3174701 174.825433,47.9116075 C175.829888,48.5971438 177.016016,48.9562439 178.226276,48.9412128 L178.226276,48.9220752 Z M202.79002,53.036669 C200.150784,53.036669 197.97153,52.3834373 196.252256,51.0769741 C194.579541,49.8228196 193.275885,48.1288276 192.481919,46.1777368 L196.440773,44.5127616 C197.697552,47.5186478 199.834076,49.0215909 202.850345,49.0215909 C204.048554,49.0713966 205.232962,48.7467555 206.243648,48.0915013 C207.07703,47.5662329 207.580114,46.6376607 207.570807,45.6418827 C207.570807,44.0751474 206.49249,43.013646 204.335858,42.4573784 L199.558841,41.282327 C197.986906,40.8601287 196.522485,40.1004961 195.264428,39.054705 C193.925329,37.9945367 193.170451,36.345079 193.235987,34.6224263 C193.235987,32.4994235 194.160976,30.7770354 196.010954,29.455262 C197.94611,28.1067403 200.251259,27.4128763 202.597733,27.4726019 C204.556867,27.440824 206.488706,27.9416821 208.192912,28.9232354 C209.801791,29.8504764 211.045771,31.3134364 211.714407,33.0646219 L207.857352,34.6645291 C206.990175,32.5415263 205.187954,31.4800249 202.45069,31.4800249 C201.286345,31.4407214 200.134023,31.7295284 199.121482,32.3144262 C198.291891,32.7507641 197.771251,33.6203423 197.771702,34.5688409 C197.771702,35.941648 198.817342,36.8730134 200.908622,37.3629372 L205.58761,38.4920583 C207.807081,39.0023955 209.448434,39.8954856 210.511669,41.1713287 C211.541524,42.3631766 212.107306,43.8957239 212.102751,45.4811265 C212.123291,47.5948241 211.157,49.5936306 209.497449,50.8702875 C207.76058,52.3145418 205.524771,53.036669 202.79002,53.036669 L202.79002,53.036669 Z M226.678873,53.036669 C223.107107,53.036669 220.203948,51.8284456 217.969395,49.4119989 C215.734842,46.9955522 214.616309,43.9411839 214.613796,40.2488941 C214.548179,36.935962 215.710824,33.718875 217.871367,31.235063 C219.948448,28.768995 223.012701,27.3887911 226.207581,27.4802569 C229.726562,27.4802569 232.534206,28.6399983 234.630513,30.9594809 C236.72682,33.2789636 237.780001,36.3818139 237.790055,40.2680318 L237.741041,41.1024331 L219.043941,41.1024331 C219.172133,43.5188799 219.968931,45.4326444 221.434335,46.8437268 C222.808713,48.2092844 224.661635,48.9638992 226.584615,48.9412128 C229.769292,48.9412128 231.924668,47.5696815 233.050742,44.826619 L237.009596,46.4915942 C236.207567,48.3897814 234.884285,50.0134993 233.197785,51.1688348 C231.425727,52.4140576 229.252756,53.036669 226.678873,53.036669 L226.678873,53.036669 Z M233.050742,37.3437995 C232.955227,35.9709924 232.335635,34.6645291 231.191966,33.4244097 C230.048297,32.1842902 228.350389,31.5769889 226.098241,31.6025058 C224.532748,31.5750307 223.012092,32.1336593 221.82645,33.1717928 C220.584516,34.2765882 219.715461,35.7492157 219.341798,37.3820748 L233.050742,37.3437995 Z" id="Shape"></path>
                            <path d="M1.6066989,43.8732883 L8.22720994,1.29197398 C8.32777924,0.643112236 8.82990599,0.131546879 9.47412157,0.0216238467 C10.1183371,-0.0882991861 10.7603352,0.228043208 11.0683702,0.807184472 L18.1864641,14.1675251 L1.6066989,43.8732883 Z M48.6187845,54.2065575 L42.3173343,15.0187697 C42.2221419,14.4559508 41.8224842,13.9935122 41.2812968,13.8199848 C40.7401094,13.6464574 40.147804,13.7908309 39.7458564,14.1942458 L0,54.2065575 L21.9924033,66.6011364 C23.3734166,67.3760485 25.0554508,67.3760485 26.4364641,66.6011364 L48.6187845,54.2065575 Z M30.7475829,20.0079026 L25.6540055,10.2624884 C25.3913218,9.76069235 24.8735865,9.44650145 24.3093923,9.44650145 C23.7451981,9.44650145 23.2274628,9.76069235 22.964779,10.2624884 L0.600138122,50.3435104 L30.7475829,20.0079026 Z" id="icon"></path>
                        </g>
                    </g>
                </g>
            </g>
        </g>
    </g>
</svg>